<?xml version="1.0" standalone="no"?>
<!DOCTYPE svg PUBLIC "-//W3C//DTD SVG 20010904//EN"
 "http://www.w3.org/TR/2001/REC-SVG-20010904/DTD/svg10.dtd">
<svg version="1.0" xmlns="http://www.w3.org/2000/svg"
 width="1920.000000pt" height="1080.000000pt" viewBox="0 0 1920.000000 1080.000000"
 preserveAspectRatio="xMidYMid meet">

<g transform="translate(0.000000,1080.000000) scale(0.100000,-0.100000)"
fill="#000000" stroke="none">
<path d="M8112 10723 c2 -5 46 -73 100 -153 53 -80 128 -201 167 -270 38 -69
85 -150 104 -180 49 -80 232 -466 284 -600 25 -63 51 -120 59 -126 20 -16 51
-91 59 -144 4 -25 18 -65 30 -90 34 -69 53 -137 65 -230 12 -104 13 -493 1
-575 -21 -134 -24 -198 -9 -193 7 3 23 19 34 36 30 43 39 228 24 472 -7 102
-13 228 -14 280 -2 66 -9 118 -25 170 -36 115 -36 114 28 171 72 65 243 180
340 228 279 140 581 207 895 198 150 -3 176 -7 211 -25 22 -12 103 -37 180
-57 289 -72 391 -161 408 -357 3 -32 2 -58 -3 -58 -5 0 -7 -7 -3 -16 3 -8 -3
-25 -14 -37 -12 -12 -33 -42 -48 -66 -15 -24 -45 -63 -68 -88 -41 -45 -146
-136 -135 -118 26 44 52 118 56 158 13 134 -73 305 -204 404 -48 37 -220 125
-237 122 -7 -2 -42 1 -79 5 -87 11 -332 -8 -462 -35 -56 -12 -146 -36 -201
-54 -55 -19 -138 -43 -185 -54 -106 -24 -246 -75 -285 -102 -16 -12 -21 -18
-10 -14 109 40 198 66 235 70 25 2 64 10 88 19 24 8 96 23 160 33 227 33 860
20 837 -18 -4 -5 1 -6 10 -3 14 6 104 -25 175 -59 16 -8 40 -42 65 -91 40 -78
40 -80 40 -190 0 -96 -3 -118 -24 -164 -13 -29 -32 -57 -42 -62 -13 -7 -47 -3
-116 14 -234 58 -256 61 -488 61 -245 -1 -369 -18 -543 -74 -108 -36 -215 -88
-207 -101 4 -6 15 -4 29 5 93 61 475 138 751 151 103 5 122 3 290 -35 438
-100 663 -186 860 -327 43 -30 79 -53 82 -50 3 3 49 -24 102 -60 91 -63 94
-64 51 -22 -119 116 -575 361 -752 404 -16 3 -28 9 -27 13 0 3 28 19 62 35 77
37 180 139 225 224 21 40 37 59 46 56 11 -4 13 6 9 50 -3 39 -1 56 7 56 19 0
279 -122 355 -167 115 -68 115 -68 42 -69 -70 -1 -117 -10 -117 -23 0 -13 141
-29 255 -30 55 0 116 -5 135 -11 19 -5 53 -10 75 -11 29 0 35 -2 20 -8 -16 -7
-14 -9 14 -14 19 -4 48 -7 65 -8 26 0 28 -2 11 -9 -13 -6 13 -9 74 -8 52 0
102 4 110 9 9 4 72 22 141 38 69 17 168 42 219 56 89 23 109 25 315 24 191 -1
417 -13 348 -17 -13 -1 -20 -6 -17 -12 3 -5 44 -10 90 -10 46 0 96 -5 111 -10
19 -8 30 -8 38 0 15 15 112 12 176 -4 59 -15 65 -15 57 8 -7 18 -91 36 -171
36 -34 0 -98 10 -142 22 -69 19 -112 22 -352 26 -318 5 -324 4 -626 -80 l-220
-61 -100 16 c-56 9 -166 30 -246 47 -133 29 -151 35 -223 81 -132 85 -376 199
-426 199 -17 0 -21 6 -21 35 0 19 -9 60 -21 90 -43 114 -178 211 -354 254 -44
10 -120 29 -170 41 -49 12 -108 26 -130 31 -22 5 -130 12 -240 15 -160 5 -223
3 -313 -10 -312 -46 -618 -185 -852 -387 -59 -50 -70 -57 -70 -39 0 12 -4 19
-9 16 -5 -3 -20 21 -35 53 -76 170 12 592 173 831 50 73 138 156 204 191 55
29 71 33 139 34 42 0 69 3 60 7 -16 6 -16 7 0 7 9 1 24 -2 33 -5 13 -6 14 -9
3 -16 -10 -7 -9 -8 5 -4 9 3 17 1 17 -4 0 -6 5 -10 11 -10 20 0 -14 32 -50 47
-48 20 -229 28 -340 14 -94 -12 -318 -64 -330 -77 -3 -4 8 -3 24 1 147 37 205
47 325 51 l135 6 -64 -32 c-215 -110 -385 -441 -409 -799 l-7 -99 -89 197
c-58 129 -91 215 -96 252 -4 30 -13 64 -20 76 -21 34 47 161 133 246 37 37 64
67 59 67 -6 0 -48 -37 -95 -82 -61 -61 -92 -100 -113 -145 -16 -34 -31 -62
-34 -62 -3 -1 -36 56 -75 126 -91 165 -205 339 -284 433 -35 41 -69 83 -75 93
-10 16 -31 25 -24 10z m1241 -280 c-7 -2 -19 -2 -25 0 -7 3 -2 5 12 5 14 0 19
-2 13 -5z m1080 -896 c44 -8 225 -122 213 -134 -2 -2 -42 7 -88 22 -139 44
-260 58 -503 59 -121 0 -249 -3 -285 -6 l-65 -7 50 14 c49 15 235 50 305 58
45 6 336 1 373 -6z"/>
<path d="M8025 10693 c-4 -10 -11 -238 -16 -508 -5 -291 -15 -559 -24 -660 -9
-93 -20 -224 -25 -290 -24 -328 -33 -404 -61 -505 -62 -227 -114 -473 -153
-725 -55 -353 -57 -434 -13 -603 l24 -94 -34 -101 c-151 -449 -238 -1006 -232
-1482 1 -125 -3 -220 -15 -310 -32 -239 -32 -683 0 -820 4 -17 -8 -26 -75 -58
-95 -46 -106 -57 -102 -106 2 -39 -17 -81 -119 -259 -37 -65 -56 -89 -62 -80
-4 7 -23 60 -42 118 -146 448 -210 997 -187 1607 12 297 35 564 53 603 6 14
12 54 13 90 3 79 53 306 100 452 43 131 44 147 3 48 -29 -72 -117 -401 -119
-444 0 -12 -11 17 -24 64 -20 68 -25 116 -29 245 -4 159 -25 339 -51 445 -7
30 -16 69 -20 85 -6 24 -9 26 -14 12 -4 -10 -18 41 -35 126 -32 157 -31 169
16 315 31 96 15 84 -23 -18 -32 -84 -49 -110 -49 -74 0 8 -22 39 -49 68 l-50
52 24 43 c34 59 126 188 189 266 78 94 161 184 147 157 -41 -77 -192 -545
-207 -642 -4 -22 -3 -23 5 -5 18 36 107 266 174 445 55 149 143 369 238 600
36 88 306 489 343 511 26 15 36 32 54 86 37 117 116 413 216 812 54 211 104
401 113 422 8 22 27 48 41 59 13 11 20 20 15 20 -18 0 -61 -55 -76 -100 -9
-25 -43 -142 -76 -260 -48 -174 -194 -656 -288 -950 -11 -33 -39 -82 -70 -121
-28 -35 -86 -121 -128 -189 -43 -69 -87 -136 -100 -150 -35 -39 -77 -120 -158
-310 l-75 -175 -124 -125 c-84 -85 -146 -160 -196 -234 -39 -60 -72 -113 -72
-117 0 -24 -22 0 -90 94 -157 216 -346 450 -359 443 -4 -3 -13 0 -21 6 -12 8
-11 9 5 4 12 -3 2 10 -25 34 -72 64 -149 76 -276 40 -39 -10 -80 -17 -92 -14
-11 4 -43 -1 -71 -11 -39 -13 -52 -23 -63 -48 -10 -25 -13 -140 -14 -513 l-2
-482 -30 -58 c-38 -71 -54 -114 -44 -114 4 0 18 7 30 16 13 9 25 14 27 12 2
-2 -46 -37 -107 -78 -179 -120 -188 -128 -188 -154 0 -13 29 -100 65 -194 57
-150 90 -282 71 -282 -3 0 -23 11 -44 24 -20 13 -91 55 -157 94 -222 130 -318
206 -638 509 -297 281 -280 269 -407 287 -58 8 -124 22 -147 30 -24 8 -43 11
-43 6 0 -6 -22 -10 -50 -10 -27 0 -50 -4 -50 -8 0 -5 -34 -60 -76 -123 -43
-63 -98 -159 -124 -214 l-48 -100 8 -115 c13 -183 71 -336 294 -775 124 -243
216 -471 216 -532 0 -11 8 -31 19 -44 16 -21 19 -51 24 -242 6 -216 6 -219 32
-250 14 -18 44 -56 66 -86 l41 -53 5 -347 c6 -384 -5 -506 -51 -608 -24 -52
-25 -53 -4 -53 19 0 20 -4 13 -68 l-7 -67 101 -111 c55 -62 126 -134 157 -160
32 -27 73 -64 91 -82 28 -26 37 -30 53 -22 13 7 33 7 62 0 24 -5 60 -10 81
-10 20 0 37 -1 37 -2 0 -2 -14 -30 -30 -62 -17 -32 -30 -66 -30 -75 0 -14 -2
-14 -11 -1 -8 11 -9 -11 -5 -80 3 -52 10 -196 16 -320 6 -124 15 -235 21 -248
5 -13 9 -30 9 -39 0 -14 -3 -14 -23 3 -13 10 0 -3 28 -31 80 -79 277 -226 392
-295 182 -108 480 -232 693 -287 129 -33 404 -45 464 -19 21 9 40 16 43 16 14
0 -133 -123 -215 -180 -95 -66 -179 -146 -167 -159 4 -3 77 -7 163 -9 126 -3
177 1 257 16 55 11 109 24 120 28 11 3 -11 -14 -50 -39 -93 -62 -74 -60 29 2
46 28 124 63 180 81 376 121 728 324 1020 589 43 39 83 71 88 71 6 0 32 16 58
35 26 19 50 32 53 28 13 -12 50 33 77 92 15 33 42 112 60 175 17 63 38 137 47
163 40 128 -22 4 -77 -153 -13 -36 -26 -69 -30 -73 -10 -11 -54 12 -165 86
-137 91 -131 79 -80 145 23 32 64 93 90 137 62 104 95 155 116 180 48 57 129
425 129 590 0 55 -14 97 -49 155 -5 8 -25 65 -44 127 -62 194 -96 252 -226
386 -111 114 -115 117 -137 102 -13 -8 -35 -15 -48 -15 -14 0 -50 -9 -81 -21
-31 -12 -59 -18 -63 -14 -4 4 -8 97 -10 208 -13 765 216 1765 525 2295 14 23
22 42 19 42 -12 0 -83 -123 -147 -255 -152 -317 -251 -623 -335 -1030 -23
-115 -43 -205 -43 -200 -4 54 54 574 85 764 53 332 170 811 225 925 23 48 23
46 4 46 -9 0 -18 17 -25 43 -5 23 -17 62 -25 87 -26 78 -22 84 33 47 26 -17
50 -36 53 -41 12 -15 122 -47 144 -42 27 7 45 45 45 94 0 67 9 68 99 6 46 -31
103 -65 129 -76 54 -24 134 -28 179 -10 51 22 56 55 33 190 -11 64 -22 118
-25 120 -3 3 -5 -48 -5 -114 0 -65 -4 -125 -8 -132 -14 -21 -77 -26 -126 -9
-25 9 -88 43 -139 76 -138 89 -179 83 -192 -29 -6 -52 -10 -60 -24 -54 -9 3
-37 15 -64 25 -26 11 -70 34 -98 52 l-50 32 6 80 c9 112 41 350 65 480 11 61
22 128 25 150 9 70 46 245 87 410 60 243 66 271 77 390 15 153 31 498 31 635
0 138 3 137 83 -25 88 -178 210 -495 338 -878 65 -197 119 -359 119 -360 0 -1
-31 -2 -70 -3 -113 -1 -166 -38 -225 -154 -9 -19 -25 -43 -33 -53 -16 -18 -17
-17 -29 15 l-13 33 5 -35 c11 -74 41 -60 106 52 22 37 49 74 62 83 61 43 172
43 183 -1 3 -13 11 -22 18 -21 7 1 12 -23 14 -70 3 -83 16 -93 60 -46 14 16
27 23 29 16 3 -7 20 -5 54 8 95 36 136 20 126 -50 -6 -50 -121 -319 -161 -379
l-31 -47 -76 -5 c-74 -6 -129 -27 -129 -50 0 -6 11 -3 25 6 24 16 28 16 65 -1
79 -35 163 0 217 92 15 25 55 114 90 197 76 183 82 238 34 287 -25 24 -38 29
-79 29 -27 0 -69 -7 -93 -15 -23 -9 -46 -12 -49 -8 -4 5 -53 145 -110 313
-213 633 -349 959 -480 1150 l-38 55 -6 280 c-11 507 -11 490 12 489 12 0 19
3 16 8 -9 15 -42 8 -49 -9z m-1148 -5735 c23 -190 15 -329 -28 -494 -30 -115
-83 -250 -113 -286 -15 -18 -57 -71 -93 -118 -139 -178 -308 -347 -462 -463
-51 -38 -72 -47 -164 -66 -102 -22 -323 -44 -362 -36 -11 2 -55 4 -97 4 l-77
1 4 32 c6 43 86 175 161 262 124 146 260 255 374 301 38 15 69 30 67 32 -5 4
-100 -29 -152 -53 -160 -74 -347 -260 -439 -437 -19 -36 -36 -63 -38 -61 -3 2
-3 -11 -2 -29 3 -29 3 -30 -5 -7 -9 24 -9 24 -10 -7 -1 -30 2 -33 42 -44 130
-35 352 -39 485 -9 48 10 139 31 201 45 176 39 439 152 656 280 42 25 78 45
80 45 2 0 30 18 62 40 31 22 63 38 70 36 7 -3 21 7 30 22 10 15 45 59 79 97
45 51 74 97 107 171 57 127 68 169 58 216 l-8 36 76 36 c42 19 120 51 173 70
l98 35 -16 -37 c-9 -20 -19 -46 -24 -57 -4 -11 -40 -78 -79 -149 -39 -71 -70
-130 -68 -132 2 -2 23 16 48 40 40 39 129 181 129 207 0 23 31 117 45 135 13
18 19 14 104 -73 49 -51 101 -111 115 -135 34 -58 81 -204 101 -312 11 -59 26
-103 43 -129 25 -37 27 -49 26 -131 -3 -179 -66 -446 -136 -576 -147 -273
-339 -494 -604 -691 -55 -41 -100 -77 -102 -81 -2 -5 -8 -8 -13 -8 -5 0 2 18
17 41 36 58 22 61 -18 3 -49 -72 -74 -93 -195 -162 -189 -108 -423 -203 -645
-262 l-73 -19 80 5 c44 3 89 8 100 10 15 4 14 1 -5 -9 -18 -10 -81 -16 -220
-21 -220 -7 -254 -2 -470 72 -271 92 -484 195 -686 330 -100 68 -133 95 -146
123 -10 22 -30 42 -47 50 -34 15 -41 41 -41 169 0 109 -15 248 -40 378 -24
123 -24 132 -6 132 8 0 17 13 21 29 13 58 77 147 171 235 52 49 142 143 199
210 159 185 177 200 420 336 121 68 263 148 315 178 52 29 106 54 120 55 28 1
176 106 285 201 l69 61 -44 -65 c-101 -150 -187 -259 -259 -328 -42 -41 -68
-70 -58 -65 33 17 161 136 214 198 62 73 173 236 208 305 36 70 183 267 234
313 49 44 132 99 139 92 3 -3 11 -56 19 -117z m124 -642 c17 -61 44 -144 60
-185 16 -42 29 -80 29 -86 0 -5 -44 -38 -98 -72 -112 -72 -92 -80 -178 63
l-51 85 33 63 c46 86 101 257 116 360 l12 86 23 -103 c13 -56 37 -151 54 -211z
m-866 89 c-41 -35 -55 -42 -55 -26 0 5 8 12 18 15 11 4 29 17 42 31 13 14 26
22 29 19 3 -3 -12 -21 -34 -39z m619 -373 c14 -27 41 -70 61 -97 20 -26 33
-51 28 -56 -48 -48 -582 -304 -599 -287 -2 2 22 24 54 48 82 64 186 164 255
245 68 80 171 194 174 195 2 0 14 -22 27 -48z m1082 -1239 c38 -29 99 -68 137
-86 l67 -34 -62 -55 c-123 -107 -265 -218 -254 -198 4 8 -18 -12 -48 -45 -30
-33 -77 -73 -104 -90 -27 -16 -105 -67 -172 -112 -116 -78 -309 -183 -430
-234 -30 -12 -67 -33 -82 -45 -28 -23 -96 -50 -104 -41 -3 2 19 20 48 38 212
136 525 467 688 729 19 30 75 99 124 152 78 84 92 96 107 85 9 -6 47 -36 85
-64z m-372 -195 c-4 -7 -15 -21 -25 -33 -201 -243 -287 -340 -385 -436 -119
-115 -302 -260 -360 -285 -43 -18 -217 -60 -299 -73 -106 -15 -272 -24 -260
-14 6 5 42 31 80 58 82 57 255 186 255 190 0 7 -41 -8 -46 -16 -3 -5 -10 -9
-17 -9 -13 0 99 80 170 121 28 16 74 36 102 45 111 33 379 166 445 221 16 13
52 36 80 50 54 27 222 148 245 176 16 20 26 23 15 5z"/>
<path d="M10950 9446 c0 -4 11 -24 25 -44 14 -20 25 -32 25 -26 0 5 -11 25
-25 44 -14 19 -25 31 -25 26z"/>
<path d="M13410 8969 c0 -12 25 -22 41 -17 6 2 0 9 -15 16 -16 7 -26 8 -26 1z"/>
<path d="M13690 8921 l35 -29 -35 -6 c-19 -3 -73 -10 -119 -16 -95 -11 -116
-20 -50 -21 l44 0 -40 -13 c-65 -21 -181 -83 -321 -172 -72 -46 -138 -86 -147
-90 -10 -3 -14 -10 -11 -15 3 -5 20 -2 37 7 18 9 30 14 27 12 -15 -15 -424
-319 -440 -328 -11 -6 -57 -13 -102 -15 -204 -11 -355 -29 -517 -61 l-175 -35
-71 71 c-39 38 -74 70 -78 70 -5 0 38 -53 95 -117 57 -65 114 -139 126 -165
24 -49 54 -78 82 -78 11 0 15 -13 17 -54 1 -56 39 -158 51 -141 4 6 28 10 54
10 l47 0 -2 -85 c-2 -135 39 -190 144 -190 44 0 59 -4 59 -14 0 -21 49 -56 77
-56 45 0 163 106 163 147 0 13 9 27 23 34 45 24 110 84 138 128 31 48 36 85
18 125 -9 20 -9 29 2 44 8 11 56 74 107 141 172 224 308 455 331 559 11 50 1
58 -52 48 -24 -5 -11 7 53 45 123 75 270 149 296 149 12 0 24 5 26 11 2 7 40
15 83 20 44 4 92 11 108 15 34 8 34 1 1 -34 -52 -55 -166 -213 -234 -326 -66
-109 -82 -155 -51 -148 8 1 10 -2 5 -10 -19 -32 -148 -197 -152 -194 -2 2 35
79 82 172 47 92 86 169 86 170 0 2 -5 4 -11 4 -18 0 -35 -26 -90 -134 -119
-232 -315 -508 -580 -816 -256 -297 -291 -335 -345 -365 -49 -27 -70 -55 -43
-55 17 0 128 81 192 140 l56 51 21 -48 c116 -257 204 -530 245 -758 8 -44 22
-118 31 -165 12 -60 17 -141 17 -275 1 -196 -11 -294 -38 -321 -9 -10 -13 -24
-9 -39 7 -29 -33 -151 -76 -231 -17 -33 -28 -50 -25 -39 44 137 49 171 48 350
0 162 -3 190 -26 279 -25 91 -154 383 -165 372 -2 -3 21 -59 52 -125 31 -66
65 -154 76 -196 40 -156 47 -350 19 -505 -16 -84 -20 -90 -34 -39 -30 113
-155 276 -285 372 l-79 58 16 42 c47 129 15 636 -63 987 -27 120 -110 378
-127 395 -13 13 -8 -5 42 -146 68 -195 107 -446 132 -864 10 -163 6 -354 -7
-390 -4 -10 -21 -6 -77 21 -72 34 -107 42 -107 24 0 -6 16 -18 34 -27 37 -17
63 -67 87 -166 12 -49 8 -226 -6 -260 -9 -22 -26 -18 -130 34 -176 89 -229
144 -323 334 -116 235 -169 437 -233 890 -47 331 -102 530 -226 815 -158 364
-330 611 -551 792 -106 87 -130 102 -52 33 230 -206 346 -356 470 -610 177
-362 303 -766 345 -1105 28 -236 36 -285 60 -403 30 -148 83 -303 145 -431
l48 -99 -80 79 c-183 181 -323 381 -511 730 -139 258 -225 407 -272 474 -18
25 -51 81 -75 125 -70 128 -155 260 -259 400 -125 167 -189 236 -275 296 l-69
49 -121 -1 c-67 0 -139 -4 -161 -8 -28 -6 8 -9 121 -10 159 -1 160 -1 205 -30
86 -56 169 -156 339 -410 l82 -124 -73 62 c-82 69 -266 197 -273 190 -3 -3 45
-43 107 -89 144 -109 263 -231 394 -404 93 -124 119 -168 224 -384 66 -135
142 -286 170 -336 168 -297 367 -539 599 -726 115 -92 158 -120 192 -125 13
-2 50 -15 83 -29 33 -14 66 -26 73 -26 44 -1 -78 -200 -185 -301 -49 -47 -127
-99 -147 -99 -3 0 -18 26 -33 58 -43 87 -148 188 -258 244 -140 72 -290 110
-310 78 -3 -5 -18 -10 -33 -11 -24 0 -25 -1 -7 -8 11 -5 51 -16 88 -25 92 -21
239 -94 311 -153 51 -41 174 -185 176 -204 0 -7 -178 -60 -265 -80 -27 -6
-124 -13 -214 -14 l-163 -4 78 45 c76 43 123 79 113 88 -2 2 -38 -10 -79 -27
-44 -18 -117 -36 -178 -45 l-104 -15 -101 34 c-137 45 -332 143 -441 221 -49
34 -130 104 -180 154 -97 96 -231 250 -231 265 0 5 -3 9 -7 9 -5 0 -8 -2 -8
-5 0 -3 0 -9 0 -14 0 -13 122 -173 194 -255 129 -147 302 -271 491 -353 55
-24 109 -48 120 -54 14 -6 -25 -8 -125 -5 -106 3 -136 1 -110 -6 19 -5 130
-12 245 -15 167 -4 225 -2 284 11 41 9 76 14 78 12 3 -2 -38 -18 -90 -34 -406
-131 -877 -95 -1188 91 l-54 32 -8 89 c-7 74 -14 101 -47 166 l-39 79 27 -15
c15 -7 45 -14 66 -14 l40 0 -75 55 c-41 30 -111 94 -157 143 -82 86 -82 87
-55 93 16 3 44 13 63 21 l35 15 -35 6 c-19 3 -70 9 -113 12 -43 3 -106 15
-140 25 -34 11 -69 20 -78 20 -18 0 -39 21 -43 42 -2 7 -15 38 -29 69 -27 60
-92 258 -103 315 l-6 34 42 0 c72 0 249 -30 334 -57 140 -43 193 -79 258 -175
218 -320 456 -472 793 -507 107 -11 356 -8 412 5 54 13 123 47 123 60 0 8 7
14 17 14 41 0 0 10 -82 20 -122 15 -315 62 -425 104 -273 106 -486 251 -676
463 -97 106 -280 336 -345 431 -67 98 -77 109 -46 47 33 -64 269 -386 369
-503 145 -169 312 -299 513 -397 183 -89 367 -141 580 -162 l80 -8 -40 -19
c-34 -17 -68 -20 -220 -24 -415 -10 -663 83 -890 331 -65 71 -185 236 -185
255 0 5 -9 21 -20 34 -31 41 -116 215 -163 338 -82 212 -131 415 -172 705 -4
28 -11 120 -15 205 l-7 155 -1 -142 c-4 -320 81 -746 208 -1043 27 -63 48
-115 46 -117 -1 -2 -29 6 -60 17 -94 32 -199 50 -331 57 l-123 6 -21 109 c-41
214 -53 391 -48 693 7 385 38 583 132 839 18 50 36 100 40 111 18 54 -19 -23
-56 -115 -78 -199 -133 -490 -148 -787 l-8 -163 -72 -139 c-84 -164 -129 -276
-186 -466 l-43 -140 -68 -12 c-38 -7 -74 -19 -79 -27 -15 -20 -135 -68 -157
-63 -10 3 -18 1 -18 -4 0 -18 62 -9 181 27 67 19 122 34 125 32 2 -2 -4 -31
-13 -63 -8 -33 -32 -143 -53 -245 -21 -102 -42 -184 -48 -183 -5 1 -65 -5
-133 -13 -75 -10 -156 -14 -204 -10 -74 5 -78 4 -50 -8 17 -8 24 -15 17 -15
-7 -1 4 -18 24 -38 52 -54 109 -144 122 -195 6 -24 13 -97 16 -164 5 -113 27
-211 45 -200 3 2 22 -24 40 -59 26 -49 38 -61 52 -58 16 5 19 -1 19 -35 0 -23
5 -44 10 -47 6 -3 10 -41 11 -83 0 -42 6 -115 14 -162 20 -125 90 -363 135
-456 43 -90 129 -187 195 -222 64 -34 30 -25 -51 13 -205 95 -329 230 -478
517 -36 70 -66 121 -66 113 0 -24 136 -300 181 -366 23 -35 66 -89 95 -119 42
-44 57 -70 79 -135 87 -263 256 -484 439 -575 81 -41 59 -38 -96 14 -132 43
-297 119 -393 181 -214 137 -403 360 -564 665 l-61 115 0 -49 c0 -41 10 -68
54 -152 l55 -102 -14 -53 c-14 -52 -72 -385 -77 -444 -2 -19 -8 -29 -16 -27
-9 2 -12 -4 -8 -15 17 -61 28 -161 33 -323 3 -112 10 -191 17 -199 17 -22 15
-89 -3 -94 -9 -3 5 -5 30 -6 69 -2 117 -41 162 -133 45 -91 67 -161 56 -180
-4 -7 -9 -70 -10 -138 -2 -181 15 -246 99 -369 36 -52 65 -101 65 -108 0 -7 4
-13 9 -13 5 0 6 -4 3 -10 -3 -5 -2 -10 3 -10 11 0 12 -7 18 -102 11 -154 -39
-337 -151 -563 -62 -126 -176 -293 -195 -287 -6 1 -10 -5 -10 -14 0 -24 -171
-189 -280 -270 -106 -79 -175 -122 -300 -185 l-85 -44 -120 1 c-66 1 -147 6
-180 13 -33 6 -107 16 -165 21 -159 14 -190 20 -190 36 0 22 -29 28 -49 10
-15 -14 -23 -14 -72 -2 -30 8 -74 17 -99 21 -72 12 -336 90 -440 129 -232 89
-289 117 -326 163 -34 42 -35 43 -12 43 19 1 15 5 -19 23 -36 19 -103 88 -103
106 0 36 -36 242 -46 263 -8 16 -25 29 -42 33 -20 4 -34 17 -47 43 -10 20 -18
43 -16 49 1 7 -4 13 -11 13 -11 1 -96 105 -106 132 -2 4 9 8 24 8 24 0 27 13
3 16 -5 1 -13 2 -19 3 -5 0 -10 8 -10 17 0 14 10 16 73 10 39 -3 124 -8 187
-12 63 -3 123 -8 133 -10 10 -4 17 0 17 9 0 23 -32 27 -227 27 -117 0 -183 4
-183 10 0 6 21 31 47 55 68 66 345 203 361 179 5 -8 16 -7 37 2 27 11 24 12
-40 9 -86 -4 -220 -51 -304 -105 l-60 -39 -53 22 c-29 12 -54 25 -56 30 -2 4
-30 7 -61 7 -152 0 -272 -52 -396 -172 -100 -95 -134 -143 -140 -194 -5 -39
-5 -39 6 -9 18 47 49 86 62 79 7 -4 9 -4 5 0 -3 4 1 17 10 29 32 41 124 127
136 127 7 0 27 11 46 25 19 14 28 25 21 25 -7 0 -10 4 -7 9 12 19 134 43 225
44 85 2 100 -1 134 -21 l37 -24 -20 -33 c-31 -50 -26 -90 25 -179 25 -44 54
-85 64 -92 10 -7 28 -40 40 -73 12 -34 30 -65 41 -71 19 -10 34 -81 32 -148
-2 -64 66 -154 147 -197 20 -10 28 -20 24 -30 -3 -9 3 -25 13 -37 19 -21 19
-21 -6 -8 -58 29 2 -12 88 -61 90 -51 92 -53 75 -71 -34 -38 -50 -41 -90 -13
-43 29 -56 31 -73 10 -7 -8 -15 -15 -19 -15 -15 0 -44 110 -39 148 7 48 -6 73
-56 107 -49 33 -114 41 -219 26 -107 -15 -166 -43 -225 -105 -60 -64 -73 -106
-44 -146 16 -22 19 -34 12 -61 -7 -31 -38 -109 -46 -118 -1 -2 -20 11 -41 28
-30 25 -47 31 -83 31 -25 0 -56 -7 -68 -16 -55 -38 -82 22 -90 199 -6 156 -2
152 -148 144 l-103 -6 16 51 c47 159 138 380 194 472 24 39 27 47 10 32 -16
-14 -21 -16 -21 -5 0 11 -2 11 -10 -1 -5 -8 -10 -19 -10 -25 0 -5 5 -3 10 5 7
10 10 11 10 2 0 -7 -6 -15 -14 -18 -22 -8 -113 -210 -161 -358 -25 -75 -45
-143 -45 -151 0 -8 -17 -19 -42 -26 -98 -26 -198 -71 -223 -100 -14 -17 -25
-34 -25 -38 0 -5 16 -28 35 -52 36 -45 44 -76 24 -96 -8 -8 -30 5 -83 49 -78
67 -155 107 -219 115 -23 3 -54 12 -69 19 -40 20 -72 17 -97 -9 -22 -25 -64
-125 -56 -137 2 -4 48 -33 102 -65 113 -67 214 -163 286 -273 27 -39 54 -72
62 -72 7 0 18 -7 25 -15 11 -13 9 -24 -8 -63 -16 -37 -79 -182 -129 -299 -8
-19 2530 -19 2544 0 14 17 33 121 33 175 0 39 -5 49 -42 84 -24 22 -58 54 -76
70 -25 24 -30 34 -21 44 6 8 95 56 198 107 l186 92 95 -5 c52 -2 132 -5 177
-5 88 0 89 -5 3 -26 -30 -7 -47 -15 -38 -17 9 -2 33 1 54 7 35 10 36 9 19 -9
-9 -10 -40 -24 -68 -30 -43 -9 -318 -92 -352 -106 -5 -2 33 -2 85 0 59 3 129
15 185 30 50 14 99 26 110 26 11 0 48 25 82 55 51 46 76 60 141 79 148 45 362
173 500 301 40 37 72 64 72 61 0 -15 -117 -237 -155 -296 -58 -88 -86 -115
-153 -149 -109 -55 -272 -120 -286 -115 -8 3 -33 -4 -57 -16 -47 -25 -125 -53
-209 -77 -73 -20 -270 -15 -317 9 -18 9 -33 12 -33 7 0 -27 125 -59 230 -59
95 0 289 34 390 69 152 52 304 117 370 160 36 22 71 41 77 41 7 0 39 19 70 43
32 24 75 56 96 71 20 15 37 34 37 43 0 8 14 33 32 56 18 22 39 52 48 67 211
368 254 471 248 603 -2 51 1 70 12 77 24 16 27 13 70 -60 23 -39 52 -77 65
-86 21 -14 26 -14 54 0 44 23 50 21 71 -26 26 -60 34 -166 20 -285 -14 -131
-81 -398 -120 -481 -17 -36 -29 -67 -27 -68 7 -7 99 147 122 204 56 137 91
340 82 470 -5 65 -3 82 5 74 19 -19 52 -14 89 13 l34 26 13 -43 c7 -24 15 -62
18 -86 8 -66 52 -211 84 -277 16 -33 57 -92 90 -130 87 -98 127 -187 136 -296
8 -103 -5 -153 -77 -311 -27 -59 -49 -110 -49 -113 0 -3 227 -5 505 -5 278 0
505 3 505 6 0 22 -105 483 -165 724 -101 403 -181 656 -241 758 -17 30 -15 23
33 -101 18 -48 48 -139 65 -201 l31 -114 -27 -33 c-25 -29 -27 -36 -20 -88 3
-31 16 -95 28 -143 25 -100 29 -98 -75 -26 -112 78 -154 71 -245 -43 l-59 -74
-7 90 c-12 170 -41 253 -93 277 -16 7 -24 17 -21 27 3 9 8 48 12 86 3 39 9 76
13 83 7 12 50 -47 123 -168 38 -62 36 -23 -2 49 -17 32 -51 80 -75 108 -25 28
-45 55 -45 60 0 5 9 39 19 74 46 156 81 414 87 649 4 145 9 203 21 225 14 28
12 40 -15 158 -29 126 -29 127 -8 120 29 -11 185 -10 215 1 l24 8 -6 -73 c-4
-41 -13 -132 -22 -204 -12 -108 -20 -473 -9 -425 3 15 39 391 55 580 16 196
17 199 72 265 28 33 82 93 121 133 65 67 68 71 31 50 -22 -13 -55 -34 -72 -47
-42 -32 -166 -188 -159 -200 13 -21 -10 -41 -70 -61 -66 -22 -73 -22 -170 5
-47 14 -51 17 -73 70 -18 44 -43 74 -119 145 -53 49 -98 88 -100 86 -7 -7 30
-56 38 -51 14 9 87 -82 118 -146 17 -35 52 -116 77 -179 53 -130 55 -172 11
-219 -23 -24 -52 -81 -40 -81 2 0 20 6 38 14 l34 14 -4 -61 c-21 -282 -32
-376 -44 -356 -5 7 -11 -12 -15 -47 -4 -32 -15 -122 -25 -199 -10 -77 -18
-165 -19 -195 0 -30 -11 -118 -25 -195 -23 -130 -83 -465 -85 -474 -1 -2 -11
9 -23 25 -12 16 -41 49 -63 75 -65 70 -98 126 -97 161 0 17 -5 43 -13 57 -7
14 -34 90 -60 169 -29 88 -54 146 -63 150 -9 3 -38 -7 -65 -22 l-49 -27 -34
26 c-27 21 -34 33 -34 61 0 30 -5 37 -35 51 -29 14 -41 15 -66 6 -26 -10 -29
-10 -25 5 3 9 14 67 26 127 31 163 35 252 15 390 -10 66 -20 149 -22 184 -5
56 -4 63 11 58 24 -9 20 -1 -21 49 -25 30 -48 46 -70 50 -18 3 -50 18 -71 33
-65 47 -65 45 0 -20 35 -35 81 -73 102 -84 l38 -19 -4 -223 c-2 -123 -1 -223
3 -223 18 0 14 -77 -12 -194 -16 -71 -30 -130 -32 -132 -2 -2 -20 19 -41 46
-41 54 -72 68 -106 50 -12 -6 -24 -10 -26 -7 -3 2 9 47 25 98 17 52 35 116 41
143 6 30 19 56 31 64 20 14 21 22 17 146 -4 149 -13 174 -108 304 -27 37 -57
85 -66 107 -19 46 -11 41 21 -11 l22 -37 5 28 c5 23 -2 36 -36 73 l-41 45 -3
126 c-2 69 -7 135 -12 146 -5 11 -21 54 -36 95 -45 127 -107 210 -168 226 -14
3 -28 13 -31 22 -4 10 -11 87 -16 173 -9 164 -21 258 -44 348 -13 51 -13 57
16 142 27 80 55 229 76 394 6 49 9 24 15 -130 10 -267 28 -310 24 -57 -2 106
-2 191 -1 190 2 -2 31 -41 65 -88 85 -116 237 -264 342 -333 l86 -58 16 -72
c17 -76 135 -361 160 -385 13 -13 15 -10 21 21 6 29 2 46 -19 81 -14 25 -40
84 -57 133 -35 98 -76 184 -93 195 -27 18 18 6 62 -16 26 -13 80 -34 121 -47
73 -24 73 -24 97 -78 14 -30 47 -120 75 -200 27 -80 57 -152 67 -159 12 -9 17
-32 20 -82 3 -49 8 -70 17 -70 8 0 16 -13 20 -30 4 -16 10 -32 15 -35 19 -12
16 26 -11 104 -16 47 -28 94 -28 105 1 25 -115 301 -156 370 -24 42 -26 49
-11 43 11 -4 62 -15 115 -23 53 -9 143 -29 201 -45 132 -37 147 -36 48 1 -231
85 -420 254 -530 474 -41 81 -92 206 -84 206 3 0 31 -16 63 -35 96 -57 231
-96 342 -100 66 -3 84 -1 56 4 -22 5 -33 9 -25 11 8 1 -9 6 -38 10 -137 20
-290 142 -368 295 -65 127 -104 262 -129 450 -14 108 -9 130 26 99 l21 -19
-15 30 c-51 102 -51 103 -55 305 -4 221 6 316 40 392 24 52 26 54 94 75 98 32
232 53 333 53 72 0 105 -6 204 -37 l118 -37 -61 -13 c-144 -29 -239 -129 -298
-313 -46 -141 -51 -247 -21 -442 12 -83 56 -171 94 -192 11 -6 34 -23 52 -37
87 -73 233 -94 333 -48 78 37 110 67 162 156 91 156 124 248 136 383 l7 75 21
-20 c40 -39 206 -122 316 -158 173 -58 390 -78 608 -58 69 7 134 14 145 16 11
3 14 2 7 -1 -6 -3 -10 -9 -7 -14 2 -4 -18 -29 -45 -56 -53 -52 -60 -65 -32
-59 24 5 119 31 172 48 70 22 219 30 255 13 l30 -14 -28 -1 c-91 -3 -184 -103
-281 -302 -90 -186 -100 -355 -26 -459 26 -37 90 -69 137 -70 54 0 150 36 197
75 l45 37 -25 -64 c-47 -120 -40 -111 -74 -93 -20 10 -36 13 -48 7 -9 -5 -35
-13 -57 -17 -32 -5 -36 -8 -22 -16 9 -6 22 -7 28 -3 6 3 26 -2 44 -12 l34 -18
-29 -35 c-15 -20 -44 -65 -63 -101 -41 -76 -120 -270 -113 -278 3 -3 9 4 12
14 18 50 109 246 139 300 35 62 94 124 119 124 8 0 48 77 96 183 113 252 121
256 69 34 -33 -142 -35 -168 -30 -353 l3 -121 -39 -59 c-22 -32 -62 -103 -88
-156 -26 -54 -51 -96 -54 -94 -4 3 -19 -53 -35 -122 -26 -116 -54 -182 -76
-182 -4 0 -29 30 -54 68 -36 53 -48 79 -53 122 -3 30 -10 60 -15 67 -5 6 -7
28 -4 47 3 20 8 52 11 71 4 21 2 35 -5 35 -5 0 -10 -10 -10 -23 0 -37 -30
-129 -51 -156 -23 -28 -117 -88 -170 -106 -104 -37 -251 -129 -318 -199 -30
-31 -60 -44 -218 -97 -169 -56 -204 -72 -190 -86 10 -10 270 67 361 107 50 22
95 40 99 40 4 0 25 12 45 26 l37 26 -30 -6 c-16 -4 -39 -9 -50 -12 -11 -3 18
20 65 52 86 57 273 154 298 154 19 0 60 34 88 71 l22 30 6 -28 c3 -15 10 -74
15 -129 5 -56 16 -115 25 -132 9 -17 16 -37 16 -44 0 -20 -60 -74 -175 -158
-117 -86 -266 -232 -296 -292 -29 -56 -54 -130 -91 -263 -23 -86 -31 -138 -35
-240 -5 -129 -5 -131 32 -243 20 -63 34 -120 31 -128 -3 -8 -2 -12 3 -9 11 6
42 -92 48 -155 3 -25 11 -59 19 -77 8 -17 32 -92 54 -165 23 -73 61 -198 85
-278 25 -80 45 -155 45 -167 0 -12 4 -23 8 -25 5 -1 30 -64 56 -138 50 -141
196 -513 240 -613 l26 -57 1022 2 1023 3 3 23 c3 17 8 22 20 17 56 -22 119
-27 177 -12 l60 15 -55 0 c-132 0 -232 47 -341 159 -80 82 -130 150 -155 209
l-15 36 38 -7 c44 -8 97 -7 241 3 57 4 149 3 205 -1 120 -11 322 4 472 34 198
40 392 117 534 212 42 29 113 70 158 91 91 44 104 58 24 27 -28 -12 -51 -17
-51 -13 0 5 16 24 36 43 19 18 61 72 93 119 74 109 73 107 61 115 -5 3 -34
-17 -64 -45 l-54 -51 -70 12 -70 12 90 101 c49 55 106 124 127 153 34 49 39
52 79 53 60 0 92 20 196 119 51 48 118 100 151 118 58 30 61 31 98 16 25 -10
39 -23 44 -41 3 -14 3 -112 0 -218 -7 -187 -6 -192 15 -219 22 -28 22 -29 5
-94 -23 -89 -113 -268 -188 -371 -100 -139 -181 -261 -176 -266 6 -6 235 266
303 359 41 55 52 64 121 90 62 24 77 27 85 16 14 -20 2 -327 -17 -434 -19
-106 -62 -240 -105 -325 l-30 -60 33 0 c33 0 36 3 70 78 36 80 66 173 88 277
15 67 19 387 6 447 -12 57 -31 61 -116 27 -41 -16 -75 -28 -77 -26 -2 2 9 34
25 73 16 38 35 97 42 131 12 59 12 65 -7 90 -19 25 -21 49 -27 216 -4 118 -11
199 -19 215 -18 37 -89 64 -148 56 -69 -9 -134 -48 -223 -133 -87 -82 -113
-101 -146 -101 -17 0 -11 15 46 113 94 161 181 333 198 391 21 70 19 129 -7
189 -22 49 -23 66 -22 257 0 113 4 237 8 275 10 83 -9 148 -67 236 -70 105
-75 109 -120 109 -37 0 -93 -20 -137 -49 -32 -22 -149 -59 -231 -75 -48 -9
-118 -28 -156 -44 l-70 -28 51 70 c84 117 124 203 137 292 13 87 6 527 -11
699 -15 153 -40 319 -64 419 -29 124 -34 126 -198 103 -123 -17 -233 -22 -261
-11 -12 4 -8 20 23 87 21 45 46 109 55 142 16 56 16 64 1 117 -10 31 -32 77
-51 102 l-35 45 0 144 c0 108 6 180 25 288 30 171 51 403 41 443 -9 35 -58 86
-83 86 -29 0 -143 -91 -222 -177 -71 -77 -72 -77 -57 -36 23 66 6 259 -30 338
l-27 59 20 196 c17 157 28 217 57 308 20 63 36 128 36 146 0 35 -25 66 -54 66
-72 0 -299 -218 -463 -445 l-21 -30 -38 22 -38 21 -17 119 c-48 329 -154 671
-280 897 -27 49 -49 91 -49 93 0 2 35 45 78 96 124 146 227 279 334 431 72
102 105 140 118 138 40 -6 232 245 320 421 56 109 109 195 200 322 31 44 61
93 67 110 9 29 9 29 -66 67 -91 46 -107 48 -61 9z m-440 -333 c0 -48 -73 -176
-209 -368 -66 -94 -257 -340 -264 -340 -1 0 -20 7 -42 15 -22 8 -59 14 -82 15
l-42 0 6 49 c3 27 3 65 -1 85 -9 46 -59 104 -110 127 l-40 17 38 7 c21 4 60 5
87 2 27 -3 49 -2 49 3 0 5 10 12 23 15 45 14 158 88 362 239 116 85 213 155
218 155 4 1 7 -9 7 -21z m-974 -426 c-2 -4 39 -6 92 -4 89 3 100 2 131 -20 59
-40 76 -72 74 -137 0 -35 -9 -78 -22 -106 -12 -26 -21 -56 -21 -66 0 -27 28
-24 56 6 21 23 31 25 102 25 96 0 125 -17 125 -70 0 -29 -10 -44 -74 -104 -42
-39 -94 -80 -117 -91 -41 -20 -52 -37 -32 -50 19 -11 -8 -43 -69 -79 -63 -39
-80 -43 -99 -24 -8 8 -8 15 -1 24 18 22 0 34 -51 34 -102 0 -130 38 -130 177
0 83 2 91 25 113 31 29 33 57 4 62 -15 2 -36 -11 -65 -40 -74 -75 -112 -42
-113 96 -1 55 -13 82 -23 51 -2 -7 -15 -9 -35 -5 -25 6 -36 17 -53 53 -13 27
-20 60 -18 82 l3 36 97 12 c53 7 112 16 130 21 45 11 90 14 84 4z m-346 -63
c0 -18 -2 -19 -15 -9 -8 7 -15 16 -15 21 0 5 7 9 15 9 9 0 15 -9 15 -21z
m-2700 -1465 c12 -76 24 -155 27 -175 l5 -35 -108 -13 c-60 -7 -137 -18 -171
-25 -40 -9 -63 -10 -63 -4 0 6 16 67 36 137 59 203 120 360 198 501 l41 75 7
-161 c4 -88 17 -223 28 -300z m39 -258 c-2 -2 -31 -1 -64 3 l-60 6 60 5 c51 4
78 -2 64 -14z m366 0 c83 -18 149 -40 171 -58 36 -29 66 -59 62 -63 -2 -2 -42
11 -88 30 -96 38 -249 72 -377 83 -61 5 -88 11 -91 21 -4 12 16 13 124 8 71
-3 161 -13 199 -21z m-320 -146 c30 -101 70 -223 89 -271 5 -12 -5 -21 -43
-38 -40 -17 -70 -21 -152 -21 -56 0 -147 -6 -203 -14 -193 -27 -194 -27 -190
-8 1 9 10 60 19 112 25 146 67 334 78 348 7 9 53 12 189 10 l180 -3 33 -115z
m3157 -290 c99 -69 179 -146 216 -210 14 -25 29 -47 32 -50 4 -3 24 -36 45
-73 35 -65 37 -72 32 -133 -7 -92 -51 -177 -128 -248 -33 -31 -66 -56 -73 -56
-8 0 -19 -7 -26 -15 -15 -18 -142 -67 -246 -96 -121 -33 -275 -58 -280 -45 -2
6 -8 33 -14 60 -9 41 -8 51 6 67 9 11 20 19 24 19 25 0 159 92 198 136 56 63
117 162 140 227 10 28 23 47 32 47 11 0 12 2 2 8 -10 7 -10 24 -2 82 14 101
-3 226 -42 303 -10 20 -15 37 -10 37 5 0 47 -27 94 -60z m-899 -430 c180 -61
308 -151 374 -261 46 -80 52 -114 8 -49 -106 156 -249 258 -445 316 -41 13
-64 23 -51 23 12 1 64 -13 114 -29z m1423 -320 c27 -194 28 -226 29 -595 0
-405 -5 -477 -47 -675 -30 -144 -74 -273 -133 -395 -66 -136 -169 -267 -238
-305 -27 -15 -58 -38 -70 -53 -19 -21 -133 -87 -153 -87 -3 0 28 32 71 72 84
78 145 154 192 238 48 85 133 305 154 400 23 103 43 436 35 568 -14 199 -83
456 -179 664 l-46 97 48 36 c86 63 212 219 261 325 l25 53 12 -69 c6 -38 24
-161 39 -274z m-3640 184 c-5 -17 -3 -23 4 -19 5 3 10 2 10 -4 0 -7 8 -7 26
-1 35 14 67 13 58 -1 -4 -8 3 -9 22 -6 95 19 109 18 168 -8 48 -21 56 -28 46
-40 -7 -8 -16 -12 -21 -9 -5 3 -9 -3 -9 -14 0 -10 -9 -27 -20 -37 -19 -17 -19
-19 -2 -31 14 -10 15 -16 6 -31 -9 -14 -22 -17 -60 -15 -30 1 -62 -4 -84 -15
-19 -9 -50 -17 -68 -17 l-32 0 34 -35 c58 -62 69 -94 71 -210 0 -64 5 -106 12
-108 5 -2 42 32 82 76 81 90 130 115 206 104 l44 -6 -45 48 c-25 26 -43 53
-40 60 2 7 -4 30 -14 51 -17 36 -38 194 -25 194 24 0 101 -50 130 -83 20 -23
42 -49 50 -58 39 -42 -8 -217 -93 -352 -32 -50 -49 -64 -120 -104 -85 -46
-155 -69 -252 -83 l-54 -7 -51 51 c-59 58 -95 129 -120 234 -28 118 -12 217
51 313 22 34 12 76 -21 89 -14 5 -22 15 -19 22 4 10 104 68 133 77 2 0 0 -11
-3 -25z m587 -89 c9 -25 12 -45 6 -45 -11 0 -15 10 -23 58 -8 45 -1 40 17 -13z
m2067 -251 l0 -34 -162 1 c-90 1 -190 4 -223 8 -68 8 -75 6 108 36 54 10 130
27 170 40 72 22 72 22 90 3 9 -11 17 -35 17 -54z m618 -84 c65 -288 95 -561
95 -875 0 -318 -29 -510 -94 -633 -50 -94 -122 -195 -179 -251 -72 -70 -182
-147 -225 -158 -22 -6 -31 -11 -21 -12 35 -2 189 31 239 50 l48 19 -18 -31
c-67 -116 -296 -338 -348 -339 -12 0 -25 -4 -30 -8 -6 -5 -38 -21 -73 -36 -53
-23 -82 -29 -180 -33 -136 -6 -203 7 -319 62 -102 48 -216 152 -277 254 -30
49 -82 189 -73 197 1 2 21 -21 44 -51 27 -34 38 -55 30 -59 -7 -2 -4 -5 5 -5
10 -1 45 -19 79 -41 34 -22 67 -40 73 -41 6 -1 0 -4 -14 -8 -18 -5 7 -12 91
-26 101 -15 129 -16 210 -6 147 18 215 38 335 97 256 125 419 352 464 644 12
76 12 186 1 250 -6 34 -9 11 -10 -91 -2 -264 -84 -457 -268 -630 -140 -130
-320 -213 -524 -240 -85 -11 -104 -10 -164 5 -64 16 -185 70 -185 82 0 4 11 4
25 1 18 -3 36 4 60 22 18 14 67 52 108 83 89 69 149 138 221 252 150 238 215
516 201 856 -11 274 -20 287 -20 30 -1 -180 -5 -257 -18 -330 -47 -251 -137
-466 -269 -641 -33 -43 -63 -81 -68 -84 -4 -3 6 27 22 67 40 94 65 223 74 367
10 179 -18 478 -61 664 -15 66 -13 78 16 92 24 11 37 32 80 129 l30 68 37 -7
c20 -4 42 -11 48 -16 6 -5 18 -7 27 -3 13 4 8 17 -23 67 -21 34 -42 75 -46 90
l-7 29 47 -7 c55 -9 60 4 11 28 l-34 16 25 68 c14 37 26 68 27 69 1 1 65 6
142 13 77 6 178 18 225 26 100 17 351 95 345 106 -3 4 1 9 7 12 19 6 22 -4 56
-153z m61 -92 c63 -194 93 -328 109 -475 10 -98 4 -365 -11 -458 l-13 -80 -7
235 c-8 297 -31 475 -97 763 -32 139 -32 137 -26 137 3 0 23 -55 45 -122z
m-870 93 c11 -7 8 -18 -15 -60 -16 -28 -34 -51 -40 -51 -6 0 -34 27 -63 60
l-52 60 78 0 c43 0 84 -4 92 -9z m-569 -233 c0 -9 3 -9 12 0 7 7 20 12 31 12
17 0 17 -1 3 -16 -17 -16 -22 -44 -8 -44 5 0 17 9 27 20 21 23 70 37 132 39
36 1 46 -4 71 -35 17 -20 39 -60 50 -89 19 -49 19 -58 7 -105 -15 -58 -25 -74
-25 -42 0 25 -5 26 -49 11 -37 -13 -61 -53 -61 -104 l0 -37 32 19 c18 11 44
35 57 54 36 53 18 1 -37 -104 -48 -91 -103 -156 -154 -183 -41 -21 -112 -4
-179 45 l-50 36 3 115 c3 95 8 122 26 158 12 23 31 47 40 53 22 14 18 67 -5
86 -14 11 -12 19 18 68 31 51 59 72 59 43z m3087 -483 c47 -181 79 -581 68
-865 -9 -264 -18 -320 -67 -410 -57 -105 -111 -181 -125 -175 -6 2 -45 -29
-85 -69 -40 -40 -109 -100 -153 -134 -44 -35 -91 -71 -105 -82 -56 -44 -233
-143 -320 -181 -121 -52 -264 -91 -294 -79 -30 11 -98 -3 -182 -37 -66 -27
-77 -28 -229 -28 -127 0 -174 4 -227 19 -50 14 -71 16 -81 8 -17 -15 -345 42
-396 68 -64 33 -102 90 -155 238 -29 81 -33 112 -13 112 6 0 54 16 105 36 117
45 218 112 304 202 58 60 75 72 120 82 173 41 477 196 621 316 71 60 187 321
187 421 0 38 0 39 97 -24 29 -18 55 -33 58 -33 3 0 19 -6 35 -15 16 -8 40 -15
52 -15 13 0 53 0 89 -1 42 0 69 5 76 13 5 7 11 49 12 93 2 92 24 245 47 325 9
30 36 101 61 158 38 84 48 100 60 91 25 -21 151 -21 248 0 50 10 110 18 134
18 l45 -2 13 -50z m-2723 -43 c-4 -21 -7 -41 -5 -45 2 -10 -21 -88 -25 -84 -3
3 10 99 23 167 4 23 8 29 11 17 2 -11 0 -35 -4 -55z m27 -313 c0 -256 -16
-402 -54 -477 -14 -26 -30 -58 -36 -72 -20 -41 -142 -181 -200 -228 -47 -38
-56 -42 -68 -29 -13 13 -13 18 1 45 8 16 22 32 29 35 9 3 19 35 26 89 12 82
73 238 93 238 5 0 34 53 64 118 31 64 60 126 66 136 6 11 17 76 24 145 18 163
34 245 46 233 5 -5 9 -110 9 -233z m1562 -24 l69 -80 -6 -74 c-2 -40 -8 -77
-13 -81 -21 -20 -293 49 -293 74 0 6 9 43 19 81 16 58 51 224 51 242 0 13 112
-92 173 -162z m-1840 131 c12 -30 -17 -35 -33 -6 -9 17 -8 20 9 20 10 0 21 -6
24 -14z m1760 -402 c29 -8 67 -14 85 -14 18 0 32 -5 32 -12 0 -27 -92 -200
-123 -230 -39 -39 -202 -149 -307 -206 -81 -44 -299 -136 -306 -129 -11 10 91
156 138 196 106 94 221 265 278 416 l23 61 65 -34 c35 -19 87 -40 115 -48z
m-4253 -50 c23 -64 22 -95 -2 -43 -17 37 -33 99 -25 99 3 0 15 -25 27 -56z
m2654 -306 c-26 -51 -61 -95 -96 -119 l-33 -22 36 39 c20 21 51 60 69 87 39
55 47 60 24 15z m-224 -402 c36 -38 96 -89 134 -114 60 -39 66 -46 50 -55 -25
-13 -94 -79 -94 -90 0 -4 14 2 31 15 18 13 48 35 69 49 l37 27 54 -19 c30 -10
64 -18 77 -19 15 0 21 -4 16 -11 -5 -9 29 -10 130 -7 131 4 136 4 136 -15 0
-24 38 -126 80 -214 46 -97 56 -102 345 -187 152 -45 242 -66 281 -66 17 0 78
-18 137 -40 147 -55 267 -86 416 -106 l127 -18 -4 -28 c-5 -32 -18 -37 -186
-69 -142 -28 -295 -35 -408 -19 -51 7 -103 13 -116 12 -12 -1 -41 12 -64 28
-22 17 -46 30 -52 30 -6 0 -16 8 -23 19 -9 14 -29 20 -80 25 -79 8 -164 -11
-232 -51 -96 -56 -170 -161 -156 -224 4 -16 4 -67 0 -113 l-7 -84 -46 24 c-68
36 -105 31 -164 -24 -15 -14 -30 -23 -34 -20 -13 14 -54 198 -60 273 -4 44
-12 83 -18 87 -6 4 -39 8 -72 8 -75 0 -202 -35 -316 -88 -142 -67 -170 -113
-103 -173 24 -22 35 -41 35 -60 0 -44 -17 -44 -73 -1 -109 83 -194 117 -316
127 -62 5 -65 4 -95 -29 l-32 -33 -18 63 -18 64 48 56 c164 186 215 254 351
469 147 231 138 222 -108 -113 -94 -129 -195 -259 -224 -290 -28 -31 -54 -65
-58 -74 -3 -10 -10 -18 -14 -18 -14 0 -51 121 -64 208 -15 106 -9 161 39 352
67 264 66 261 139 340 89 96 191 178 299 240 49 28 96 58 104 66 13 14 17 12
35 -13 11 -15 49 -59 85 -97z m3589 57 c12 -14 24 -38 27 -52 4 -14 13 -31 21
-37 43 -35 74 -251 39 -271 -8 -4 -39 -58 -70 -119 -61 -123 -188 -318 -244
-376 -64 -67 -29 -48 57 30 75 69 163 172 232 274 l26 39 -5 -143 c-4 -133 -3
-148 18 -196 37 -86 27 -136 -63 -315 -90 -180 -188 -345 -263 -444 -91 -119
-222 -252 -276 -279 -26 -13 -73 -47 -103 -74 -97 -88 -175 -115 -435 -151
-138 -19 -493 -16 -665 5 -164 20 -350 58 -454 92 -40 13 -80 24 -88 24 -7 0
-18 11 -23 25 -6 15 -20 27 -37 31 -81 17 -78 14 -78 94 l0 73 -60 53 c-33 30
-65 54 -71 54 -7 0 -15 15 -18 33 -11 57 -75 199 -127 286 l-51 84 1 84 c2 95
10 119 43 125 48 8 467 -13 556 -29 116 -20 271 -14 427 17 61 12 117 24 125
27 8 3 71 25 140 50 69 24 156 53 195 64 74 22 157 62 178 87 10 13 9 14 -11
3 -49 -26 -29 -3 32 37 73 48 176 142 176 160 0 20 -19 14 -60 -19 l-39 -32
-26 31 c-33 40 -94 63 -183 69 l-72 6 80 46 c43 25 100 62 126 81 26 19 58 42
72 50 15 8 38 25 52 38 45 42 271 171 354 203 45 17 114 37 154 44 40 7 78 17
85 23 11 9 68 21 127 27 49 5 117 44 124 70 8 32 29 32 55 -2z m-1245 -597
c-4 -10 8 -16 48 -21 83 -12 138 -31 169 -61 17 -16 34 -24 43 -21 9 4 16 5
16 3 0 -8 -147 -99 -219 -135 l-81 -41 -128 0 c-152 0 -339 21 -477 55 -156
37 -163 41 -70 47 63 4 103 14 186 46 82 33 118 42 165 42 89 0 216 36 351 99
1 1 0 -5 -3 -13z m-216 -337 c37 0 37 0 -17 -20 -30 -10 -56 -17 -59 -15 -2 3
-1 14 3 26 4 14 12 19 22 16 8 -3 31 -6 51 -7z m-4849 -565 c-12 -66 -60 -186
-112 -282 l-34 -64 -7 70 -7 71 55 93 c30 51 66 113 81 137 14 24 28 41 30 39
3 -3 0 -31 -6 -64z m2336 -36 c56 -36 187 -164 215 -211 11 -17 33 -35 52 -42
37 -12 37 -15 11 -93 l-18 -53 -40 8 c-71 14 -111 9 -146 -18 -19 -14 -38 -28
-44 -31 -6 -4 -10 34 -11 105 -1 125 -8 137 -75 137 l-37 0 -36 108 c-19 59
-38 124 -42 145 l-6 37 63 -30 c35 -16 87 -44 114 -62z m3681 -443 c-18 -22
-63 -65 -99 -96 -62 -52 -73 -57 -149 -72 -184 -36 -408 -52 -548 -39 l-85 7
95 13 c52 7 106 16 119 19 18 4 22 3 16 -7 -6 -10 -2 -12 16 -6 13 3 71 18
129 32 125 31 140 38 222 106 34 29 87 67 116 83 l55 31 73 -15 73 -15 -33
-41z m-609 -161 c-3 -3 -12 -4 -19 -1 -8 3 -5 6 6 6 11 1 17 -2 13 -5z m-280
-70 c131 -28 406 -23 593 12 43 8 -80 -52 -175 -86 -49 -17 -126 -40 -170 -50
-111 -26 -316 -53 -325 -43 -7 7 -30 153 -30 186 0 5 7 7 14 4 8 -3 50 -14 93
-23z m-6670 -69 l42 -7 -118 -58 c-66 -32 -144 -75 -175 -96 -43 -28 -60 -34
-68 -26 -6 6 -10 13 -7 14 2 2 25 13 50 26 25 13 77 54 115 93 57 57 73 69 94
65 14 -3 44 -8 67 -11z"/>
<path d="M11390 4599 c0 -27 26 -76 46 -87 21 -11 96 6 91 21 -6 19 -72 67
-105 76 -28 9 -32 7 -32 -10z"/>
<path d="M11296 4568 c-20 -31 -59 -119 -54 -124 2 -2 21 2 42 8 63 20 100
104 57 128 -27 14 -28 13 -45 -12z"/>
<path d="M11291 4401 l-45 -18 25 -16 c30 -19 126 -53 133 -47 11 12 -20 80
-42 89 -12 6 -24 11 -25 10 -1 0 -22 -8 -46 -18z"/>
<path d="M13050 1976 c0 -2 9 -6 20 -9 11 -3 18 -1 14 4 -5 9 -34 13 -34 5z"/>
<path d="M13925 1980 c-3 -5 -2 -10 4 -10 5 0 13 5 16 10 3 6 2 10 -4 10 -5 0
-13 -4 -16 -10z"/>
<path d="M11162 8838 c6 -18 28 -21 28 -4 0 9 -7 16 -16 16 -9 0 -14 -5 -12
-12z"/>
<path d="M10005 8720 c-33 -5 -98 -13 -145 -19 -47 -5 -125 -22 -175 -36 -101
-29 -275 -108 -275 -124 0 -17 13 -14 103 24 115 47 223 81 349 110 92 22 131
25 285 25 269 0 426 -24 560 -84 43 -20 69 -29 58 -20 -38 31 -180 91 -255
109 -86 20 -403 30 -505 15z"/>
<path d="M13442 8524 c-18 -31 -31 -58 -29 -60 7 -7 88 97 82 106 -11 18 -21
10 -53 -46z"/>
<path d="M8073 8493 c15 -2 37 -2 50 0 12 2 0 4 -28 4 -27 0 -38 -2 -22 -4z"/>
<path d="M7980 8469 c-39 -23 -130 -108 -130 -122 0 -4 24 16 53 46 28 29 72
63 97 75 25 12 38 22 30 22 -8 0 -31 -9 -50 -21z"/>
<path d="M8150 8486 c0 -2 8 -10 18 -17 15 -13 16 -12 3 4 -13 16 -21 21 -21
13z"/>
<path d="M8201 8384 c0 -11 3 -14 6 -6 3 7 2 16 -1 19 -3 4 -6 -2 -5 -13z"/>
<path d="M8711 4974 c0 -11 3 -14 6 -6 3 7 2 16 -1 19 -3 4 -6 -2 -5 -13z"/>
<path d="M8923 4729 c-46 -13 -50 -28 -5 -22 27 4 42 1 50 -10 11 -13 10 -16
-7 -22 -35 -11 -24 -26 14 -19 26 4 43 1 68 -15 35 -22 83 -29 72 -11 -5 9
-156 112 -159 109 0 0 -15 -5 -33 -10z"/>
<path d="M10472 3975 c-20 -42 -21 -44 -2 -33 26 17 46 56 34 68 -7 7 -18 -6
-32 -35z"/>
<path d="M11406 3818 c-44 -138 -55 -213 -47 -308 l7 -85 8 60 c4 33 14 112
22 175 8 63 22 142 30 174 22 88 10 78 -20 -16z"/>
<path d="M8505 3753 c8 -169 14 -190 117 -423 80 -181 81 -183 96 -188 28 -9
6 51 -82 221 -89 172 -94 186 -101 262 -4 44 -13 114 -20 155 l-14 75 4 -102z"/>
<path d="M8352 3590 c0 -14 2 -19 5 -12 2 6 2 18 0 25 -3 6 -5 1 -5 -13z"/>
<path d="M9770 3570 c0 -12 112 -90 130 -90 9 0 56 -18 103 -40 47 -22 100
-43 119 -46 18 -4 41 -13 50 -21 20 -18 104 -21 120 -5 15 15 1 19 -82 26 -36
2 -75 7 -86 10 -44 9 -176 69 -192 86 -19 20 -162 91 -162 80z"/>
<path d="M8361 3553 c-1 -7 8 -69 19 -138 12 -69 20 -131 18 -138 -1 -6 2 -38
6 -69 7 -57 26 -86 47 -72 16 10 6 124 -15 156 -9 14 -29 81 -45 149 -16 68
-30 118 -30 112z"/>
<path d="M11075 3199 c-4 -6 -5 -12 -2 -15 2 -3 7 2 10 11 7 17 1 20 -8 4z"/>
<path d="M8705 1549 c-4 -6 -5 -12 -2 -15 2 -3 7 2 10 11 7 17 1 20 -8 4z"/>
</g>
</svg>
